# xmcd
#
# Track frame offsets:
#	150
#	15984
#	35601
#	57561
#	75218
#	90608
#	104638
#	124073
#	138473
#	154307
#	173924
#	195884
#	213541
#	228931
#	242961
#	262396
#	288196
#
# Disc length: 3846 seconds
#
# Revision: 1
# Processed by: cddbd v1.5.2PL0 Copyright (c) Steve Scherf et al.
# Submitted via: audiograbber 1.83.01
#
DISCID=ed0f0411
DTITLE=Various Artist - G-4474 Country Hits, I'm Already There
DYEAR=2004
DGENRE=Country
TTITLE0=Toby Keith - 01 - How Do You Like Me Now, w - vocals
TTITLE1=Dixie Chicks - 02 - Goodbye Earl, w - vocals
TTITLE2=Tim McGraw - 03 - My Best Friend, w - vocals
TTITLE3=Dixie Chicks - 04 - Ready To Run, w - vocals
TTITLE4=Alabama - 05 - God Must Have Spent A Little More Time On You, w - vocal
TTITLE4=s
TTITLE5=Jamie O'Neil - 06 - When I Think About Angels, w - vocals
TTITLE6=Lonestar - 07 - I'm Already There, w - vocals
TTITLE7=Faith Hill - 08 - The Way You Love Me, w - vocals
TTITLE8=Toby Keith - 09 - How Do You Like Me Now
TTITLE9=Dixie Chicks - 10 - Goodbye Earl
TTITLE10=Tim McGraw - 11 - My Best Friend
TTITLE11=Dixie Chicks - 12 - Ready To Run
TTITLE12=Alabama - 13 - God Must Have Spent A Little More Time On You
TTITLE13=Jamie O'Neil - 14 - When I Think About Angels
TTITLE14=Lonestar - 15 - I'm Already There
TTITLE15=Faith Hill - 16 - The Way You Love Me
TTITLE16=Data Track - Data Track
EXTD=The Singing Machine, Karaoke 
EXTT0=
EXTT1=
EXTT2=
EXTT3=
EXTT4=
EXTT5=
EXTT6=
EXTT7=
EXTT8=
EXTT9=
EXTT10=
EXTT11=
EXTT12=
EXTT13=
EXTT14=
EXTT15=
EXTT16=
PLAYORDER=
